<svg width="44" height="44" viewBox="0 0 44 44" fill="none" xmlns="http://www.w3.org/2000/svg">
<g id="ei:arrow-up">
<path id="Vector" d="M16.4164 31.4224C11.2064 28.4144 9.42602 21.7701 12.434 16.5601C15.442 11.35 22.0864 9.5697 27.2964 12.5777C32.5064 15.5857 34.2867 22.23 31.2787 27.44C28.2707 32.6501 21.6264 34.4304 16.4164 31.4224ZM26.6564 13.6862C22.0561 11.0302 16.1985 12.5997 13.5425 17.2001C10.8865 21.8004 12.4561 27.6579 17.0564 30.3139C21.6567 32.9699 27.5142 31.4004 30.1702 26.8C32.8262 22.1997 31.2567 16.3422 26.6564 13.6862Z" fill="white"/>
<path id="Vector_2" d="M25.9129 25.5983L23.9686 18.342L16.7122 20.2863L16.3843 19.0623L24.8646 16.79L27.1369 25.2703L25.9129 25.5983Z" fill="white"/>
<path id="Vector_3" d="M23.8623 17.2461L24.9708 17.8861L19.5308 27.3084L18.4223 26.6684L23.8623 17.2461Z" fill="white"/>
</g>
</svg>
