<svg width="44" height="44" viewBox="0 0 44 44" fill="none" xmlns="http://www.w3.org/2000/svg">
<g id="ei:arrow-up">
<path id="Vector" d="M16.4164 31.4224C11.2064 28.4144 9.42602 21.7701 12.434 16.5601C15.442 11.35 22.0864 9.5697 27.2964 12.5777C32.5064 15.5857 34.2867 22.23 31.2787 27.44C28.2707 32.6501 21.6264 34.4304 16.4164 31.4224ZM26.6564 13.6862C22.0561 11.0302 16.1985 12.5997 13.5425 17.2001C10.8865 21.8004 12.4561 27.6579 17.0564 30.3139C21.6567 32.9699 27.5142 31.4004 30.1702 26.8C32.8262 22.1997 31.2567 16.3422 26.6564 13.6862Z" fill="#0F172A"/>
<path id="Vector_2" d="M25.9126 25.5978L23.9683 18.3415L16.712 20.2858L16.384 19.0618L24.8643 16.7895L27.1366 25.2698L25.9126 25.5978Z" fill="#0F172A"/>
<path id="Vector_3" d="M23.8621 17.2461L24.9706 17.8861L19.5306 27.3084L18.4221 26.6684L23.8621 17.2461Z" fill="#0F172A"/>
</g>
</svg>
