<svg width="15" height="16" viewBox="0 0 15 16" fill="none" xmlns="http://www.w3.org/2000/svg">
<g id="teenyicons:tick-circle-outline" clip-path="url(#clip0_5387_7284)">
<path id="Vector" d="M4 8L7 10.5L11 5.5M7.5 15C6.58075 15 5.6705 14.8189 4.82122 14.4672C3.97194 14.1154 3.20026 13.5998 2.55025 12.9497C1.90024 12.2997 1.38463 11.5281 1.03284 10.6788C0.68106 9.82951 0.5 8.91925 0.5 8C0.5 7.08075 0.68106 6.1705 1.03284 5.32122C1.38463 4.47194 1.90024 3.70026 2.55025 3.05025C3.20026 2.40024 3.97194 1.88463 4.82122 1.53284C5.6705 1.18106 6.58075 1 7.5 1C9.35652 1 11.137 1.7375 12.4497 3.05025C13.7625 4.36301 14.5 6.14348 14.5 8C14.5 9.85652 13.7625 11.637 12.4497 12.9497C11.137 14.2625 9.35652 15 7.5 15Z" stroke="#F7CE46"/>
</g>
<defs>
<clipPath id="clip0_5387_7284">
<rect width="15" height="15" fill="white" transform="translate(0 0.5)"/>
</clipPath>
</defs>
</svg>
