<svg width="32" height="32" viewBox="0 0 32 32" fill="none" xmlns="http://www.w3.org/2000/svg">
<g id="Symbol/Testimonials" clip-path="url(#clip0_7566_28)">
<path id="&#226;&#128;&#156;" fill-rule="evenodd" clip-rule="evenodd" d="M31.8597 4.99783C27.0878 7.77442 24.7019 11.0369 24.7019 14.7853C26.7358 15.0629 28.4177 16.0463 29.7475 17.7354C31.0774 19.4244 31.7423 21.3796 31.7423 23.6009C31.7423 25.961 31.097 27.9508 29.8062 29.5705C28.5155 31.1902 26.8923 32 24.9366 32C22.7462 32 20.8492 30.9472 19.2456 28.8417C17.6419 26.7361 16.8401 24.1793 16.8401 21.1714C16.8401 12.1475 21.1034 5.09041 29.6302 0L31.8597 4.99783ZM15.0196 4.99783C10.2086 7.77442 7.80313 11.0369 7.80313 14.7853C9.87615 15.0629 11.5776 16.0463 12.9074 17.7354C14.2373 19.4244 14.9022 21.3796 14.9022 23.6009C14.9022 25.961 14.2471 27.9508 12.9368 29.5705C11.6265 31.1902 9.99349 32 8.03781 32C5.84745 32 3.96024 30.9472 2.37614 28.8417C0.792039 26.7361 0 24.1793 0 21.1714C0 12.1475 4.24376 5.09041 12.7314 0L15.0196 4.99783Z" fill="#F7CE46"/>
</g>
<defs>
<clipPath id="clip0_7566_28">
<rect width="32" height="32" fill="white"/>
</clipPath>
</defs>
</svg>
