<svg width="20" height="20" viewBox="0 0 20 20" fill="none" xmlns="http://www.w3.org/2000/svg">
<g id="ion:time">
<path id="Vector" d="M10 1.875C5.51289 1.875 1.875 5.51289 1.875 10C1.875 14.4871 5.51289 18.125 10 18.125C14.4871 18.125 18.125 14.4871 18.125 10C18.125 5.51289 14.4871 1.875 10 1.875ZM13.75 11.25H10C9.83424 11.25 9.67527 11.1842 9.55806 11.0669C9.44085 10.9497 9.375 10.7908 9.375 10.625V5C9.375 4.83424 9.44085 4.67527 9.55806 4.55806C9.67527 4.44085 9.83424 4.375 10 4.375C10.1658 4.375 10.3247 4.44085 10.4419 4.55806C10.5592 4.67527 10.625 4.83424 10.625 5V10H13.75C13.9158 10 14.0747 10.0658 14.1919 10.1831C14.3092 10.3003 14.375 10.4592 14.375 10.625C14.375 10.7908 14.3092 10.9497 14.1919 11.0669C14.0747 11.1842 13.9158 11.25 13.75 11.25Z" fill="#E2E8F0"/>
</g>
</svg>
